<svg xmlns="http://www.w3.org/2000/svg" viewBox="0 0 1066.09 1200"><defs><style>.cls-3{mix-blend-mode:overlay}.cls-3,.cls-4{fill:#fff}.cls-5{fill:none;stroke:#000;stroke-linecap:round;stroke-linejoin:round;stroke-width:2px}.cls-7{fill:#f9f9f9}.cls-9{fill:#fdc500}.cls-10{mix-blend-mode:soft-light}</style></defs><g style="isolation:isolate"><g id="Buck"><path d="M1048.41 51.1c-2.06 3.84-91.88 234.53-127.14 301.8-.43.85-.86 1.65-1.28 2.43-3.73 6.94-6.82 13.26-17.17 16.51-4.81 1.51-11.18 2.36-19.92 2.29-31.01 0-84.38 2.47-84.38 2.47l-74.37 98.9c12.23-1.29 30.46-3.19 38.49-3.91 12.65-1.14 18.6-2.08 19.56 1.86 1.22 5.01-11.16 8.11-11.16 8.11l-68.5 22.68-31.88 42.4-15.03 19.98-17.85 3.94.4-17.82-28 9.03 6.44-27.68-21.09 12.98-1.51-23.29 161.29-201.19-2.14-192.28s-.87-10.89 6.96-12.39c7.84-1.51 9.2 14.75 9.2 14.75l31.64 186.57 87.04-3.18 14.81-28.9 45.61-88.99s4.38-6.31 1.47-20.81c-2.9-14.49-14.13-107.69-14.13-107.69s-2.12-13.76 4.93-15.8c7.04-2.03 8.47 9.84 10.12 13.77 1.65 3.93 23.46 78.93 23.46 78.93l62.59-104.21s5.53-8.39 11.23-5.31c5.69 3.09 2.4 10.16.31 14.05ZM470.55 547.07l-21.09-12.98 6.44 27.68-28-9.03.4 17.82-17.85-3.93-15.05-20.02-31.86-42.37-68.5-22.68s-12.38-3.1-11.16-8.11c.96-3.94 6.91-3 19.56-1.86 8.03.72 26.26 2.62 38.49 3.91l-74.37-98.9s-53.37-2.47-84.38-2.47c-8.74.07-15.11-.78-19.92-2.29-10.35-3.25-13.44-9.57-17.17-16.51-.42-.78-.85-1.58-1.28-2.42C109.55 285.63 19.73 54.94 17.67 51.1c-2.09-3.89-5.38-10.96.31-14.05 5.7-3.08 11.23 5.31 11.23 5.31L91.8 146.57s21.81-75 23.46-78.93c1.65-3.93 3.08-15.8 10.12-13.77 7.05 2.04 4.93 15.8 4.93 15.8s-11.23 93.2-14.13 107.69c-2.91 14.5 1.47 20.81 1.47 20.81l45.61 88.99 14.81 28.9 87.04 3.18 31.64-186.57s1.36-16.26 9.2-14.75c7.83 1.5 6.96 12.39 6.96 12.39l-2.14 192.28 161.29 201.19-1.51 23.29Z" style="fill:#7edae7"/><path d="M576.05 581.8c-10.45 2.88-19.57 13.2-20.07 32.21-.75 28.2.37 51.27-10.05 67.27-10.42 16-2.41 38.14-12.89 38.14s-2.48-22.14-12.9-38.14-9.3-39.07-10.04-67.27c-.51-19-9.63-29.32-20.07-32.21 6.72-4.9 14.48-8.66 22.93-10.98 6.35-1.76 13.09-2.7 20.08-2.7s13.73.94 20.08 2.7c8.45 2.32 16.21 6.08 22.93 10.98Zm67.1 86.25c-6.8-18.12-8.76-37.24-6.3-47.53 7.5-10.54 12.66-22.63 11.12-40.52l10.22-13.94-2.56.56 15.03-19.98c12.71 20.11 4.92 88.42-27.51 121.41Z" class="cls-9"/><path d="M688.49 743.14s-5.05 8.78-14.92 7.76c0 0 3.36 27.71-24.2 36.78-.44-2.94-1.13-5.92-2.1-8.92-7.92-24.59-32.22-41.57-43.08-64.26 1.93.4 3.94.61 5.99.61 16.29 0 29.5-13.21 29.5-29.5s-13.21-29.5-29.5-29.5c-.43 0-.85.01-1.27.03 8.13-13.9 19.51-23.78 27.94-35.62-2.46 10.29-.5 29.41 6.3 47.53 1.09 2.89 2.3 5.76 3.64 8.56h.01c7.99 16.78 20.48 31.18 37.85 34.6 0 0-4.76 7.36-16.49 10.52 0 0 3.76 16.14 20.33 21.41Z" class="cls-9"/><path d="M639.68 685.61c0 16.29-13.21 29.5-29.5 29.5-2.05 0-4.06-.21-5.99-.61-3.88-8.09-6.04-16.91-5.14-27.06 1.14-12.84 4.89-22.82 9.86-31.3.42-.02.84-.03 1.27-.03 16.29 0 29.5 13.21 29.5 29.5Z" class="cls-4"/><path d="M794.49 787.46c-60.02 60.02-29.6 96.93-72.71 210.07-43.11 113.15-188.74 166.09-188.74 166.09s-145.63-52.94-188.74-166.09c-43.11-113.14-12.69-150.05-72.71-210.07 0 0 72.9-26.4 72.9-86.52 0 0 41.61 8.86 74.79-24.32-7.99 16.77-20.48 31.17-37.85 34.59 0 0 4.76 7.36 16.49 10.52 0 0-3.76 16.14-20.33 21.41 0 0 5.05 8.78 14.92 7.76 0 0-3.36 27.71 24.2 36.78-.58 3.84-.72 7.61-.47 11.29-16.32 12.22-26.96 39.01-31.57 62.03-5.11 25.55-24.62 40.88-24.62 40.88s7.61 5.4 19.1 3.1c0 0-9.59 56.89 23.08 92.52 0 0 3.36-10.63 10.25-15.8 0 0-.86 27.01 44.54 50.28s76.02 63.5 76.02 82.46c0-18.96 30.62-59.19 76.02-82.46 45.4-23.27 44.54-50.28 44.54-50.28 6.89 5.17 10.25 15.8 10.25 15.8 32.67-35.63 23.08-92.52 23.08-92.52 11.49 2.3 19.1-3.1 19.1-3.1s-19.51-15.33-24.62-40.88c-4.61-23.02-15.25-49.81-31.57-62.03.25-3.68.11-7.45-.47-11.29 27.56-9.07 24.2-36.78 24.2-36.78 9.87 1.02 14.92-7.76 14.92-7.76-16.57-5.27-20.33-21.41-20.33-21.41 11.73-3.16 16.49-10.52 16.49-10.52-17.37-3.42-29.86-17.82-37.85-34.59 33.18 33.18 74.79 24.32 74.79 24.32 0 60.12 72.9 86.52 72.9 86.52Z" style="fill:#e58cfd"/><path d="M686.93 904.98s9.59 56.89-23.08 92.52c0 0-3.36-10.63-10.25-15.8 0 0 .86 27.01-44.54 50.28s-76.02 63.5-76.02 82.46c0-18.96-30.62-59.19-76.02-82.46-45.4-23.27-44.54-50.28-44.54-50.28-6.89 5.17-10.25 15.8-10.25 15.8-32.67-35.63-23.08-92.52-23.08-92.52-11.49 2.3-19.1-3.1-19.1-3.1s19.51-15.33 24.62-40.88c4.61-23.02 15.25-49.81 31.57-62.03 1.45 21.51 16.24 39.73 35.69 48.69h.01c26.42 40.4 2.78 82.06 2.3 82.9.51-.09 34.05-6.13 42.44 33.53 5.7 26.93 36.36 35.27 36.36 35.27s30.66-8.34 36.36-35.27c8.39-39.66 41.93-33.62 42.44-33.53-.48-.84-24.12-42.5 2.3-82.9h.01c19.45-8.96 34.24-27.18 35.69-48.69 16.32 12.22 26.96 39.01 31.57 62.03 5.11 25.55 24.62 40.88 24.62 40.88s-7.61 5.4-19.1 3.1Z" class="cls-7"/><path d="M611.84 930.56c-.51-.09-34.05-6.13-42.44 33.53-5.7 26.93-36.36 35.27-36.36 35.27s-30.66-8.34-36.36-35.27c-8.39-39.66-41.93-33.62-42.44-33.53.48-.84 24.12-42.5-2.3-82.9 9.29 4.28 19.69 6.38 30.23 5.7 7.73 20.55 27.62 35.31 50.87 35.31s43.13-14.76 50.86-35.31c10.54.68 20.95-1.42 30.24-5.7-26.42 40.4-2.78 82.06-2.3 82.9Z" class="cls-9"/><path d="M583.9 853.36c-7.73 20.55-27.61 35.31-50.86 35.31s-43.14-14.76-50.87-35.31c8.83-.57 17.77-3.09 26.22-7.94 4.31 9.3 13.72 15.74 24.65 15.74s20.34-6.44 24.65-15.74c8.45 4.85 17.38 7.37 26.21 7.94Z" style="fill:#ff8041"/><path d="M557.69 845.42c-4.31 9.3-13.72 15.74-24.65 15.74s-20.34-6.44-24.65-15.74c8.99-5.13 17.44-12.89 24.65-23.69 7.21 10.8 15.66 18.56 24.65 23.69Z" class="cls-4"/><path d="M461.89 714.5c-10.86 22.69-35.16 39.67-43.08 64.26-.97 3-1.66 5.98-2.1 8.92-27.56-9.07-24.2-36.78-24.2-36.78-9.87 1.02-14.92-7.76-14.92-7.76 16.57-5.27 20.33-21.41 20.33-21.41-11.73-3.16-16.49-10.52-16.49-10.52 17.37-3.42 29.86-17.82 37.85-34.59h.01c1.34-2.81 2.55-5.68 3.64-8.57 6.8-18.12 8.76-37.24 6.3-47.53 8.43 11.84 19.81 21.72 27.94 35.62-.42-.02-.84-.03-1.27-.03-16.29 0-29.5 13.21-29.5 29.5s13.21 29.5 29.5 29.5c2.05 0 4.06-.21 5.99-.61Z" class="cls-9"/><path d="M461.89 714.5c-1.93.4-3.94.61-5.99.61-16.29 0-29.5-13.21-29.5-29.5s13.21-29.5 29.5-29.5c.43 0 .85.01 1.27.03 4.97 8.48 8.72 18.46 9.86 31.3.9 10.15-1.26 18.97-5.14 27.06Z" class="cls-4"/><path d="M422.93 668.05c-32.43-32.99-40.24-101.33-27.53-121.44l15.05 20.01-2.56-.56L418.11 580c-1.54 17.89 3.62 29.98 11.12 40.52 2.46 10.29.5 29.41-6.3 47.53Z" class="cls-9"/><path d="M649.37 787.68c.58 3.84.72 7.61.47 11.29-1.45 21.51-16.24 39.73-35.69 48.69h-.01c-9.29 4.28-19.7 6.38-30.24 5.7-8.83-.57-17.76-3.09-26.21-7.94-8.99-5.13-17.44-12.89-24.65-23.69-7.21 10.8-15.66 18.56-24.65 23.69-8.45 4.85-17.39 7.37-26.22 7.94-10.54.68-20.94-1.42-30.23-5.7h-.01c-19.45-8.96-34.24-27.18-35.69-48.69-.25-3.68-.11-7.45.47-11.29.44-2.94 1.13-5.92 2.1-8.92 7.92-24.59 32.22-41.57 43.08-64.26 3.88-8.09 6.04-16.91 5.14-27.06-1.14-12.84-4.89-22.82-9.86-31.3-8.13-13.9-19.51-23.78-27.94-35.62-7.5-10.54-12.66-22.63-11.12-40.52l-10.22-13.94 2.56.56 17.85 3.94-.4-17.82 28 9.03-6.44-27.68 21.09 12.98 1.51-23.29.2-3.14 40.7 50.18c-8.45 2.32-16.21 6.08-22.93 10.98 10.44 2.89 19.56 13.21 20.07 32.21.74 28.2-.38 51.27 10.04 67.27 10.42 16 2.66 38.14 12.9 38.14s2.47-22.14 12.89-38.14 9.3-39.07 10.05-67.27c.5-19.01 9.62-29.33 20.07-32.21-6.72-4.9-14.48-8.66-22.93-10.98l40.7-50.18.2 3.14 1.51 23.29 21.09-12.98-6.44 27.68 28-9.03-.4 17.82 17.85-3.93 2.56-.57L647.97 580c1.54 17.89-3.62 29.98-11.12 40.52-8.43 11.84-19.81 21.72-27.94 35.62-4.97 8.48-8.72 18.46-9.86 31.3-.9 10.15 1.26 18.97 5.14 27.06 10.86 22.69 35.16 39.67 43.08 64.26.97 3 1.66 5.98 2.1 8.92Z" class="cls-7"/><path d="M310.66 120.91c-9.69-1.16-9.52 1.66-17.6 64-8.08 62.34-11.83 107.01-14.13 126.9-2.3 19.89 6.98 35.15 6.98 35.15s-16.21-21.42-63.39-21.01c-47.18.41-55.75 16.81-55.75 16.81s6.57-19.2-11.75-57.79-37.37-86.79-37.37-86.79l60.42 117.89 87.04 3.18 21.2-125.02 9-53.1s1.86-23.38 8.92-23.23c0 0 3.71-.4 6.43 3.02ZM129.19 57.34c-4.45-2.07-7.42-2.67-13.5 21.36s-16.44 66.11-19.16 77.58-1.81 26.55-1.81 26.55-4.53-25.04-13.58-41.34c-9.05-16.29-40.43-69.4-48.88-83.58s-9.59-21.68-17.45-16.46c0 0 3.15-9.31 11.24-2.61 0 0 2.98 3.23 9.53 14.14s56.22 93.6 56.22 93.6l24.8-83.2s2.2-10.16 7.69-9.71c0 0 3.18.27 4.9 3.67Z" class="cls-3"/><path d="M283.9 474.88c13.12-3.88 77.87 10.28 90.08 19.43 0 0-42.8-39.58-86.81-91.64l54.77 72.83-36.42-3.72-13.56-1.14s-8.7-1.19-8.05 4.24Zm26.87-152.29 160.26 217 1.03-15.81-161.29-201.19z" class="cls-4"/><path d="M755.42 120.91c9.69-1.16 9.52 1.66 17.6 64 8.08 62.34 11.83 107.01 14.13 126.9 2.3 19.89-6.98 35.15-6.98 35.15s16.21-21.42 63.39-21.01 55.75 16.81 55.75 16.81-6.57-19.2 11.75-57.79c18.32-38.6 37.37-86.79 37.37-86.79l-60.42 117.89-87.04 3.18-21.2-125.02-9-53.1s-1.86-23.38-8.92-23.23c0 0-3.71-.4-6.43 3.02ZM936.9 57.34c4.45-2.07 7.42-2.67 13.5 21.36s16.44 66.11 19.16 77.58c2.72 11.47 1.81 26.55 1.81 26.55s4.53-25.04 13.58-41.34c9.05-16.29 40.43-69.4 48.88-83.58 8.45-14.18 9.59-21.68 17.45-16.46 0 0-3.15-9.31-11.24-2.61 0 0-2.98 3.23-9.53 14.14-6.56 10.91-56.22 93.6-56.22 93.6l-24.8-83.2s-2.2-10.16-7.69-9.71c0 0-3.18.27-4.9 3.67Z" class="cls-3"/><path d="M782.19 474.88c-13.12-3.88-77.87 10.28-90.08 19.43 0 0 42.8-39.58 86.81-91.64l-54.77 72.83 36.42-3.72 13.56-1.14s8.7-1.19 8.05 4.24Zm-26.88-152.29-160.26 217-1.03-15.81 161.29-201.19z" class="cls-4"/><path d="M648.33 662.24s-5.18-63.62 27.96-92.78c0 0 .34-12.23-5.63-22.82l-15.03 19.98 2.56-.56L647.97 580s3.58 20.9-11.12 40.52c0 0-3.81 22.05 6.3 47.53l5.18-5.82Zm-230.5 0s5.18-63.62-27.96-92.78c0 0-.34-12.23 5.63-22.82l15.03 19.98-2.56-.56L418.19 580s-3.58 20.9 11.12 40.52c0 0 3.81 22.05-6.3 47.53l-5.18-5.82Zm49.69-144.14-3.19 25.14 6.22 3.83 1.51-23.29-4.54-5.68zm-18.06 15.99-1.85 25.01 8.29 2.67-6.44-27.68zm-21.56 18.65-7.4 16.11 7.8 1.71-.4-17.82zm166.12-28.96 11.64 17.06-10.13 6.23-1.51-23.29zm22.6 10.31 6 23.76-12.44 3.92 6.44-27.68zm21.56 18.65 8.43 15.88-8.83 1.94.4-17.82zm-208.54 146.3s-.04 15.89 8.09 24.86c8.13 8.97-25.84 10.73-21.01 63.79 0 0 2.71-21.82 23.89-43.39 0 0 19.31-21.75 21.29-29.79 0 0-21.14 5.38-32.25-15.47Z" class="cls-10"/><path d="M430.09 635.36s13.53 9.21 13.44 23.47c0 0 7.57-3.59 13.64-2.69 0 0-8.13-11.99-13.64-18.33-5.52-6.34-14.23-17.29-14.23-17.29s1.25 10.44.79 14.84Zm206.36 63.68s.04 15.89-8.09 24.86c-8.13 8.97 25.84 10.73 21.01 63.79 0 0-2.71-21.82-23.89-43.39 0 0-19.31-21.75-21.29-29.79 0 0 21.14 5.38 32.25-15.47Zm-.46-63.68s-13.53 9.21-13.44 23.47c0 0-7.57-3.59-13.64-2.69 0 0 8.13-11.99 13.64-18.33 5.52-6.34 14.23-17.29 14.23-17.29s-1.25 10.44-.79 14.84Zm-52.09 218c-4.14 31.67-20.49 51.95-46.88 54.68-27.19 2.81-54.85-14.5-54.85-54.68 0 0 13.4 38.24 53.95 35.22 37.43-2.79 47.78-35.22 47.78-35.22Z" class="cls-10"/><path d="M488.99 865.93s39.52-10.22 44.06-44.19c0 0-15.5 28.77-50.87 31.63 0 0 3.61 9.63 6.81 12.56Z" class="cls-10"/><path d="M577.09 865.93s-39.52-10.22-44.06-44.19c0 0 15.5 28.77 50.87 31.63 0 0-3.61 9.63-6.81 12.56Zm-217.04 35.95s5.23 12.35 17.98 14.86l1.12-11.76s-8.31 2.82-19.1-3.1Zm45.78 87.75c7.1 19.11 15.32 33.94 35.98 44.27 20.66 10.33 91.21 53.6 91.21 79.64 0 0-4.07-34.93-54.99-68.95 0 0-26.6-15.28-38.96-23.58-12.36-8.3-19.94-18.87-22.51-25.09s-4.07-14.21-4.07-14.21l-6.65 7.92Zm299.92-87.75s-5.23 12.35-17.98 14.86l-1.12-11.76s8.31 2.82 19.1-3.1Z" class="cls-10"/><path d="M659.97 989.63c-7.1 19.11-15.32 33.94-35.98 44.27-20.66 10.33-91.21 53.6-91.21 79.64 0 0 4.07-34.93 54.99-68.95 0 0 26.6-15.28 38.96-23.58 12.36-8.3 19.94-18.87 22.51-25.09s4.07-14.21 4.07-14.21l6.65 7.92Z" class="cls-10"/><circle cx="613.81" cy="679.59" r="8.12"/><circle cx="452.27" cy="679.59" r="8.12"/><circle cx="615.52" cy="780.28" r="2.93"/><circle cx="595.53" cy="796.05" r="2.93"/><circle cx="623.32" cy="800.89" r="2.93"/><circle cx="606.3" cy="815.25" r="2.93"/><circle cx="451.34" cy="780.28" r="2.93"/><circle cx="471.32" cy="796.05" r="2.93"/><circle cx="443.53" cy="800.89" r="2.93"/><circle cx="460.55" cy="815.25" r="2.93"/><path d="M649.37 787.68c27.56-9.07 24.2-36.78 24.2-36.78 9.87 1.02 14.92-7.76 14.92-7.76-16.57-5.27-20.33-21.41-20.33-21.41 11.73-3.16 16.49-10.52 16.49-10.52-17.37-3.42-29.86-17.82-37.85-34.59h0c-1.34-2.81-2.55-5.68-3.64-8.57-6.8-18.12-8.76-37.24-6.3-47.53" class="cls-5"/><path d="M670.66 546.64c12.71 20.11 4.92 88.42-27.51 121.41m-34.24-11.91c.42-.02.84-.03 1.27-.03 16.29 0 29.5 13.21 29.5 29.5s-13.21 29.5-29.5 29.5c-2.05 0-4.06-.21-5.99-.61m9.96 133.16h-.01c-26.42 40.4-2.78 82.06-2.3 82.9m25.09-335.5L647.97 580l10.22-13.94-2.56.56v.01l-17.85 3.93.4-17.82-28 9.03 6.44-27.68-21.09 12.98-1.51-23.29-.2-3.14-40.7 50.18" class="cls-5"/><path d="M655.63 566.63h0l15.03-19.99 31.88-42.4 68.5-22.68s12.38-3.1 11.16-8.11c-.96-3.94-6.91-3-19.56-1.86-8.03.72-26.26 2.62-38.49 3.91l74.37-98.9s53.37-2.47 84.38-2.47c8.74.07 15.11-.78 19.92-2.29 10.35-3.25 13.44-9.57 17.17-16.51.42-.78.85-1.58 1.28-2.42h0c35.26-67.28 125.08-297.97 127.14-301.81 2.09-3.89 5.38-10.96-.31-14.05-5.7-3.08-11.23 5.31-11.23 5.31l-62.59 104.21s-21.81-75-23.46-78.93c-1.65-3.93-3.08-15.8-10.12-13.77-7.05 2.04-4.93 15.8-4.93 15.8s11.23 93.2 14.13 107.69c2.91 14.5-1.47 20.81-1.47 20.81l-45.61 88.99-14.81 28.9-87.04 3.18-31.64-186.57s-1.36-16.26-9.2-14.75c-7.83 1.5-6.96 12.39-6.96 12.39l2.14 192.28-161.29 201.19m-164.79 96.74c2.46 10.29.5 29.41-6.3 47.53-1.09 2.89-2.3 5.76-3.64 8.56h-.01c-7.99 16.78-20.48 31.18-37.85 34.6 0 0 4.76 7.36 16.49 10.52 0 0-3.76 16.14-20.33 21.41 0 0 5.05 8.78 14.92 7.76 0 0-3.36 27.71 24.2 36.78" class="cls-5"/><path d="M422.93 668.05c-32.43-32.99-40.24-101.33-27.53-121.44m66.49 167.89c-1.93.4-3.94.61-5.99.61-16.29 0-29.5-13.21-29.5-29.5s13.21-29.5 29.5-29.5c.43 0 .85.01 1.27.03m-2.93 274.42c.48-.84 24.12-42.5-2.3-82.9h0m159.91 82.91h0c-.51-.1-34.05-6.14-42.44 33.52-5.7 26.93-36.36 35.27-36.36 35.27s-30.66-8.34-36.36-35.27c-8.39-39.66-41.93-33.62-42.44-33.53h-.01m58.72-359.74-40.69-50.18-1.72 26.43-21.09-12.98 6.44 27.68-28-9.03.41 17.83-20.42-4.5 21.26 28.99" class="cls-5"/><path d="M410.45 566.63h0l-46.91-62.39-68.5-22.68s-12.38-3.1-11.16-8.11c.96-3.94 6.91-3 19.56-1.86 8.03.72 26.26 2.62 38.49 3.91l-74.37-98.9s-53.37-2.47-84.38-2.47c-8.74.07-15.11-.78-19.92-2.29-10.35-3.25-13.44-9.57-17.17-16.51-.42-.78-.85-1.58-1.28-2.42h0C109.55 285.63 19.73 54.94 17.67 51.1c-2.09-3.89-5.38-10.96.31-14.05 5.7-3.08 11.23 5.31 11.23 5.31L91.8 146.57s21.81-75 23.46-78.93 3.08-15.8 10.12-13.77c7.05 2.04 4.93 15.8 4.93 15.8s-11.23 93.2-14.13 107.69c-2.91 14.5 1.47 20.81 1.47 20.81l45.61 88.99 14.81 28.9 87.04 3.18 31.64-186.57s1.36-16.26 9.2-14.75c7.83 1.5 6.96 12.39 6.96 12.39l-2.14 192.28 161.29 201.19M647.97 580c1.54 17.89-3.62 29.98-11.12 40.52-8.43 11.84-19.81 21.72-27.94 35.62-4.97 8.48-8.72 18.46-9.86 31.3-.9 10.15 1.26 18.97 5.14 27.06 10.86 22.69 35.16 39.67 43.08 64.26.97 3 1.66 5.98 2.1 8.92 3.94 26.3-12.44 49.49-35.22 59.98h-.01c-25.37 11.69-59.02 7.13-81.1-25.93-22.08 33.06-55.73 37.62-81.1 25.93h0c-22.78-10.49-39.16-33.68-35.22-59.98.44-2.94 1.13-5.92 2.1-8.92 7.92-24.59 32.22-41.57 43.08-64.26 3.88-8.09 6.04-16.91 5.14-27.06-1.14-12.84-4.89-22.82-9.86-31.3-8.13-13.9-19.51-23.78-27.94-35.62-7.5-10.54-12.66-22.63-11.12-40.52" class="cls-5"/><path d="M646.79 676.61h0c33.18 33.19 74.79 24.33 74.79 24.33 0 60.12 72.9 86.52 72.9 86.52-60.02 60.02-29.6 96.93-72.71 210.07-43.11 113.15-188.74 166.09-188.74 166.09s-145.63-52.94-188.74-166.09c-43.11-113.14-12.69-150.05-72.71-210.07 0 0 72.9-26.4 72.9-86.52 0 0 41.61 8.86 74.79-24.32h.01" class="cls-5"/><path d="M482.17 853.37c7.73 20.55 27.62 35.31 50.87 35.31 23.25 0 43.13-14.76 50.86-35.31M472.06 601.63c11.41-19.9 34.44-33.5 60.98-33.5 26.55 0 49.57 13.6 60.98 33.5" class="cls-5"/><path d="M649.84 798.97c16.32 12.22 26.96 39.01 31.57 62.03 5.11 25.55 24.62 40.88 24.62 40.88s-7.61 5.4-19.1 3.1c0 0 9.59 56.89-23.08 92.52 0 0-3.36-10.63-10.25-15.8 0 0 .86 27.01-44.54 50.28s-76.02 63.5-76.02 82.46c0-18.96-30.62-59.19-76.02-82.46-45.4-23.27-44.54-50.28-44.54-50.28-6.89 5.17-10.25 15.8-10.25 15.8-32.67-35.63-23.08-92.52-23.08-92.52-11.49 2.3-19.1-3.1-19.1-3.1s19.51-15.33 24.62-40.88c4.61-23.02 15.25-49.81 31.57-62.03" class="cls-5"/><path d="M508.39 845.42c4.31 9.3 13.72 15.74 24.65 15.74s20.34-6.44 24.65-15.74m-24.65 15.74v-58.89m-35.98-34.47v8.46c0 11.02 9.21 26.01 35.98 26.01h0c26.76 0 35.98-14.99 35.98-26.01v-8.46m-78.99-186c10.44 2.89 19.56 13.21 20.07 32.21.74 28.2-.38 51.27 10.04 67.27 10.42 16 2.66 38.14 12.9 38.14s2.47-22.14 12.89-38.14 9.3-39.07 10.05-67.27c.5-19.01 9.62-29.33 20.07-32.21" class="cls-5"/></g></g></svg>