<svg xmlns="http://www.w3.org/2000/svg" id="Layer_1" data-name="Layer 1" viewBox="0 0 1534 998"><defs><style>.cls-1{fill:#fff746}.cls-1,.cls-2,.cls-3,.cls-4,.cls-6{stroke-width:0}.cls-2{fill:#6bffff}.cls-3{fill:none}.cls-4{fill:#bbff42}.cls-6{fill:#fff}</style></defs><path fill="#ff57cb" stroke-width="0" d="m1037.17 553.55-131.81-37.11 49.76 86.61-51.5-44.99 14.84 76.48-76.82-91.1-46.27 119.23L767 621.05 645.23 804.4l64.59-170.98-89.03 57.37 61.98-105.74-61.23 12.62 28.93-44.12-125.71 4.51 102.14-58.82-42.77-8.84 43.64-40.33-130.94-11.25 116.1-41.62-82.05-115.87 181.57 40.5v-75.37l42.56 54 6.32-46.12 31.42 64.12 41.03-112.49 9.6 52.87 64.59-65.24-10.47 32.62 42.78-25.88-42.78 54 109.12-14.62-109.12 62.99 62.42 20.25-77.25 51.74 154.5 13.5-114.35 42.75 34.04 25.87-42.77 5.63 123.08 91.1z"/><path d="m973.3 646.99-.01-.01h.01m-438.6.11-.07.12m72.82 101.11c-.36.15-3.43 1.48-8.06 2.74 2.67-.91 5.36-1.82 8.06-2.74z" class="cls-3"/><path d="m546.5 267.26-25.45-31.6-9.12 18.72-57.09-101.31 59.19 67.23 5.7-14.03 26.77 60.99z" class="cls-1"/><path d="m147.66 731 29.19-24.04-151.99-24.05 39.5-39.49 160.57 54.09-21.46 17.18 155.41 28.33L147.66 731zm338.19-360.23C393.68 327.78 383.21 222.4 383.21 222.4c-16.19 15.25-13.45 41.87-13.45 41.87-74.94-135.24-50.55-227.23-50.55-227.23L421.07.39c-47.24 140.1-20.77 190.45-20.77 190.45 3.35-23.63 24.64-27.67 24.64-27.67-19.38 126.22 60.91 207.6 60.91 207.6z" class="cls-4"/><path d="M405.31 373.44C157.28 240.02 107 64.35 107 64.35l133.98-61.4c-20.87 198.28 162.98 369.23 164.34 370.49z" class="cls-2"/><path d="M435.34 457.79s-129.23-43.11-191.23-168.07c0 0-17.87 17.17-8.69 47.76 0 0-111.13-38.09-148.31-202.21 0 0-74.38 89.23-66.68 242.1 0 0 66.21 121.46 203.88 111.76 0 0-28.94-13.45-33.7-44.91 0 0 106.24 69.72 244.72 13.58z" class="cls-1"/><path d="M454.84 717.27C130.4 672.38-84.89 520.82 33.28 486.01c108.13-31.84 142.23 60.77 142.23 60.77 77.26-.77 80.79 71.32 80.79 71.32s42.42-20.98 87.87 34.85c43.32 53.22 104.99 63.47 110.67 64.32zm98.05 33.79c-408.5 138.23-528.03 69.16-528.03 69.16s39.79.62 63.63-22.89c20.03-19.75 39.13-1.72 39.13-1.72 3.48-12.1 15.49-29.47 38.38-33.66 27.67-5.07 42.45 17.83 42.45 17.83 14.48-15.27 36.27-12.67 51.39.04 26 21.86 56.36 35.21 91.01 28.81 50.16-9.26 55.96-54.91 77.06-62.23 21.11-7.31 31.2 9.72 31.2 9.72s1.74-9.59 12.73-10.9c12.38-1.48 16.49 9.19 16.49 9.19 4.84-7.74 13.14-12.7 31.21-4.32 11.53 5.35 24.97 3.24 33.35.95zm42.95 45.02c-81.64 62.04-333.41 201.53-333.41 201.53 15.89-18.33 12.35-30.02 19.85-46.04 6.04-12.9 22.91-8.36 22.91-8.36s-8.31-22.87 6.54-34.79c19.74-15.86 33.78.23 33.78.23s-9.18-40.14 29.08-62.69c38.25-22.56 67.65 3.56 67.65 3.56s1.63-23.6 25.24-33.25c23.61-9.65 39.9 6.96 39.9 6.96s-2.33-14.75 16.55-23.4c18.88-8.64 29.83 4.65 29.83 4.65 3.26-12.22 10.07-10.71 21.96-7.02 11.62 3.6 19.74-1.16 20.11-1.38z" class="cls-6"/><path d="M1047.74 378.12s164.71-156.96 146.09-339.13l119.09 56.2s-44.68 160.8-265.18 282.93z" class="cls-2"/><path fill="#94f995" stroke-width="0" d="m1129.4 210.16-78.67 93.24-6.31-17.97-32.05 26.71 40.31-59.73v21.37l76.72-63.62z"/><path d="m1133.46 79.46-45.09 61.57-.05-16.51-44.36 64.11-1.27-21.58-55.24 72.27 51.43-106.54 2.54 19.67 50.78-84.42v24.12l37.2-59.02 4.06 46.33z" class="cls-1"/><path d="m1343.91 742.51 27.12 26.36-211.51-5.4 157.22-15.45-19.97-18.88 164.47-40.7 36.12 42.61-153.45 11.46z" class="cls-4"/><path d="m1191.75 265.71-.01.01" class="cls-3"/><path d="M1437.31 158.97s-93.72 159.6-334.2 235.11c1.57-.78 203.64-101.19 268.69-313.86l65.52 78.75z" class="cls-1"/><path d="M1466.52 320.11s-47.28 61.06-110.93 61.26c0 0 9.51-5.12 11.46-17.36 0 0-46.59 37.42-108.62 17.53 0 0 57.74-25.02 75.95-82.42 0 0 7.76 11.51 5.77 20.73 0 0 86.89-57.33 95.35-132.87 0 0 38.28 62.42 31.02 133.13z" class="cls-4"/><path d="M1481.54 340.22s-2.66 90.36-23.24 130.39c0 0-63.1 60.87-173.01 49.16 0 0 26.64-17.13 33.46-33.11-.73.51-61.19 43.02-176.9 18.45 0 0 174.48-9.03 237.73-104.69 0 0 8.4 31.36-6.84 49.55 0 0 79.87-34.33 108.79-109.75z" class="cls-1"/><path d="M1533.5 947.82s-389.03-92.01-520.48-140.7c.77.2 13.31 3.35 28-3.61 15.16-7.19 24.02-10.63 32.32 2.25 0 0 10.87-17.73 39.47-12.87 28.6 4.86 30.04 22.02 30.04 22.02s17.14-22.83 52.55-18.05c35.4 4.78 45.04 30.85 45.04 30.85s32.14-36.85 91.69-21.34c59.54 15.5 59.54 62.92 59.54 62.92s14.21-21.67 46.26-8.93c24.1 9.58 19.87 37.37 19.87 37.37s21.72-9.42 34.05 3.51c15.3 16.06 14.11 30.09 41.65 46.59zm-4.55-367.12c-17.91 29.53-72.86 65.1-153.53 96.38-82.84 32.12-192.81 59.69-317.6 71.51 5.9-.62 69.96-8.46 116.98-61.34 49.33-55.47 92.16-31.99 92.16-31.99s6.72-72.88 84.57-69.94c11.16-38.87 46.97-67.31 89.43-67.31 7.52 0 14.82.89 21.82 2.58h.01c30.95 7.44 55.88 30.36 66.14 60.11z" class="cls-6"/><path d="M1010.88 748.64c.06 0 .12-.01.17-.02h.07c.07 0 .13-.01.2-.02" class="cls-3"/></svg>