<svg xmlns="http://www.w3.org/2000/svg" width="514" height="207" fill="none"><g clip-path="url(#a)"><path fill="url(#b)" d="M447.328 206.252c-10.809 0-20.211-2.557-27.74-7.477l-2.77 5.269H257.052c-3.991 1.466-8.324 2.208-12.921 2.208h-12.269c-6.871 0-13.057-1.769-18.236-5.172-7.277 3.435-15.62 5.172-24.931 5.172h-12.269c-12.475 0-23.072-3.403-31.079-9.918l-1.343 7.71c-.278 1.588-50.309-.097-55.39 0-4.566.084-8.905 1.253-13.51 1.73-22.283 2.312-47.564.278-62.938-18.022C1.853 175.47-2.002 158.294 1.31 139.381c5.85-33.598 30.556-55.32 62.939-55.32h12.269c2.705 0 5.32.123 7.839.362-2.176-8.589-2.434-18.145-.678-28.187 3.1-17.699 12.153-34.378 27.185-44.658 17.034-11.655 40.642-13.205 60.408-9.33 10.435 2.046 19.96 5.365 27.56 13.075a42.675 42.675 0 0 1 4.752 5.76h280.75l-43.018 82.834c4.894-1.259 10.073-1.898 15.439-1.898h12.269c19.159 0 29.704 7.768 35.173 14.283 12.921 15.394 10.519 40.229 4.229 58.012-7.406 20.948-27.23 31.938-48.83 31.938h-12.269z"/><path fill="#000" d="M494.796 124.193c-5.508-6.574-14.18-9.899-25.777-9.899H456.75c-5.302 0-10.254.749-14.787 2.208h-21.006l43.173-83.144h-48.022l-3.765 8.724-.736-8.724H280.589c-3.016-1.485-6.684-2.208-11.068-2.208h-12.269c-3.203 0-6.806.562-10.416 2.208h-50.367c-1.646-3.61-3.764-6.773-6.379-9.42-7.032-7.13-17.532-10.746-31.215-10.746h-12.269c-26.513 0-45.995 17.312-50.85 45.175-2.674 15.278.219 28.903 8.168 38.35 7.768 9.254 19.778 14.135 34.733 14.135h12.269c8.834 0 16.673-1.853 23.421-5.45l-.071.355-.504 2.887h42.289l5.792-33.249c.665-3.764 1.511-5.714 2.906-6.722.439-.33 1.02-.587 1.705-.807l-.039.207c-2.893 16.343-1.227 28.793 4.823 35.999 3.72 4.443 9.105 6.787 15.543 6.787h12.269c3.887 0 7.361-.724 10.493-2.209h27.101l-1.401 7.865h-29.607c-3.015-1.485-6.696-2.208-11.067-2.208H242.31c-5.973 0-13.154 1.898-19.301 8.93-.174-.187-.329-.368-.517-.542-5.547-5.573-13.754-8.395-24.389-8.395h-12.269c-6.664 0-12.733 1.156-18.099 3.384l.206-1.175h-5.708c-2.454 0-4.662.232-6.709.884l.148-.884h-41.591c-1.647-3.623-3.765-6.774-6.38-9.421-7.032-7.142-17.531-10.745-31.201-10.745H64.23c-26.526 0-46.008 17.299-50.85 45.162-2.687 15.284.22 28.903 8.155 38.363 7.768 9.24 19.779 14.122 34.747 14.122H68.55c8.82 0 16.66-1.841 23.407-5.437l-.058.355-.517 2.873h42.289l5.805-33.235c.685-3.978 1.421-6.135 3.868-7.252-2.37 13.302-.31 24.305 5.973 31.828 5.941 7.116 15.311 10.868 27.089 10.868h12.268c11.972 0 20.489-3.448 26.527-8.233a19.492 19.492 0 0 0 1.647 2.073c3.732 4.087 8.782 6.16 15.006 6.16h12.269c3.875 0 7.349-.711 10.48-2.209h101.954l3.804-21.69 3.764 21.69h45.26l7.374-14.038c.968 1.937 2.098 3.739 3.461 5.373 5.941 7.116 15.31 10.867 27.088 10.867h12.269c22.71 0 32.964-12.404 37.581-22.807l1.079-2.441-20.257-6.993h20.418l.504-1.789c.613-2.234.846-3.499 1.143-5.101l.232-1.285c2.17-12.353.271-22.491-5.495-29.361l.013-.013zM157.364 60.117a33.521 33.521 0 0 1-3.926 11.992c-1.989 3.596-4.223 7.29-8.117 9.079-1.459-.64-2.699-1.525-3.667-2.687-3.106-3.706-3.952-10.222-2.428-18.855 1.73-9.692 6.799-14.774 12.217-16.796 1.156.478 2.137 1.118 2.918 1.912 2.861 2.906 3.242 7.355 3.255 11.23 0 1.381-.084 2.756-.252 4.125zm-58.27 88.013-9.867-2.002-2.086-.419-.71 2.001-.11.317-9.363-1.899-2.086-.419-.71 2.001c-3.377 9.486-6.664 14.542-11.203 16.621-1.473-.639-2.713-1.536-3.681-2.699-3.106-3.693-3.939-10.222-2.415-18.855 1.718-9.679 6.787-14.774 12.204-16.782 1.163.477 2.138 1.104 2.919 1.911 2.305 2.37 3.364 6.49 3.216 12.624l-.071 2.712 2.712-.207 9.582-.762-.026.969 2.713-.207 10.008-.794-1.033 5.889h.007zm238.454-31.628 1.408-7.865h32.474l.355-2.027 3.299-18.513 4.54 28.399h-42.082l.006.006z"/><path fill="#fff" d="M459.597 192.756c-11.41 0-20.45-3.609-26.152-10.435-5.437-6.508-7.58-15.788-6.276-27.004l-18.5 35.231h-31.215l-10.887-62.713-11.022 62.713h-27.521l8.743-49.76h-4.656l-8.866 49.76h-27.534l8.879-49.76h-4.746l-8.743 49.76h-27.515l1.996-11.5c-5.405 9.531-12.082 13.708-21.445 13.708-5.863 0-10.609-1.937-14.096-5.766-3.074-3.364-5.063-8.149-5.928-14.128-4.901 9.543-14.942 19.888-35.412 19.888-11.41 0-20.45-3.61-26.152-10.435-6.076-7.277-8.039-18.016-5.676-31.053.129-.73.272-1.479.433-2.234h-5.954c-9.621 0-11.7 1.478-13.069 9.292l-5.625 32.228h-27.52l3.525-20.069c-8.601 14.613-22.31 22.277-40.1 22.277-14.587 0-26.28-4.733-33.797-13.689-7.703-9.176-10.512-22.446-7.897-37.362 4.746-27.23 23.763-44.148 49.643-44.148 13.341 0 23.544 3.493 30.33 10.383 4.811 4.882 7.936 11.5 9.344 19.746l1.75-9.963h27.514l-3.035 17.544c6.141-14.839 11.391-17.544 19.831-17.544h4.255l-2.583 14.903c7.297-11.1 19.185-17.112 34.204-17.112 10.293 0 18.21 2.706 23.518 8.033 3.648 3.662 5.954 8.414 6.903 14.187 5.314-14.568 14.232-22.22 26.042-22.22 11.029 0 17.254 4.63 19.598 14.833l2.189-12.624h32.183l2.279-12.773h27.521l-2.279 12.773h110.826l-2.654 5.056c6.722-4.772 15.162-7.265 24.771-7.265 11.209 0 19.565 3.184 24.834 9.467 5.521 6.58 7.329 16.382 5.224 28.334-.09.485-.168.911-.239 1.311-.284 1.576-.51 2.816-1.11 4.985l-.252.898h-43.89c.038 2.86.665 4.881 1.892 6.16 1.381 1.434 3.738 2.131 7.199 2.131 6.296 0 8.298-2.783 10.255-6.425l.497-.917 23.156 7.988-.543 1.22c-4.462 10.073-14.406 22.078-36.458 22.078l.013.012zm-276.901-32.241c.039 2.861.665 4.882 1.892 6.16 1.382 1.434 3.739 2.131 7.2 2.131 6.296 0 8.297-2.783 10.254-6.425l.497-.917 21.167 7.304c-.148-2.577-.11-5.334.104-8.259h-41.114v.006zM74.898 123.709c-7.684 0-16.782 4.952-19.256 18.861-1.582 9.008-.652 15.872 2.693 19.857 2.402 2.86 6.096 4.313 10.971 4.313 8.595 0 13.38-4.869 18.28-18.616l.356-1.001 23.982 4.849 2.125-12.075-25.384 2.021.032-1.362c.162-6.47-1-10.894-3.558-13.509-2.195-2.247-5.54-3.345-10.234-3.345l-.007.007zm399.816 23.601c.31-3.003-.136-5.224-1.324-6.606-1.233-1.433-3.338-2.131-6.425-2.131-5.792 0-9.014 2.48-11.139 8.737h18.894-.006zm-270.896 0c.31-3.003-.136-5.224-1.324-6.606-1.233-1.433-3.338-2.131-6.431-2.131-5.793 0-9.015 2.48-11.139 8.737h18.894z"/><path fill="#000" d="M76.519 98.777c26.668 0 38.789 13.98 39.286 38.195l3.171-18.022h25.028l-4.714 27.237h.439c8.246-24.88 13.838-27.237 22.523-27.237h2.796l-3.648 21.025c6.27-14.833 19.081-23.234 36.723-23.234 20.695 0 29.735 11.223 29.684 27.476 4.662-17.603 13.657-27.476 26.784-27.476 10.597 0 18.107 4.269 19.288 20.024h.439l3.094-17.815h32.176l2.28-12.773h25.028l-2.279 12.773h110.258l-4.675 8.904c6.999-7.2 16.782-11.113 28.825-11.113 24.292 0 32.538 15.459 28.858 36.361-.439 2.357-.588 3.532-1.324 6.186h-44.168c-.297 7.801 2.945 10.745 10.306 10.745 6.922 0 9.273-3.241 11.339-7.064l20.902 7.213c-5.153 11.629-15.607 21.348-35.334 21.348-21.496 0-35.483-13.251-30.621-40.042.226-1.279.485-2.531.782-3.745l-21.839 41.585h-29.445l-11.914-68.615-12.055 68.615h-25.029l8.743-49.76h-7.142l-8.865 49.76h-25.042l8.879-49.76h-7.239l-8.743 49.76h-25.028l3.093-17.816h-.297c-6.477 15.756-14.284 20.024-23.705 20.024-14.07 0-20.85-11.868-18.991-32.241h-43.657c-.298 7.8 2.944 10.745 10.305 10.745 6.923 0 9.273-3.242 11.339-7.065l20.903 7.213c-5.153 11.63-15.608 21.348-35.335 21.348-21.496 0-35.482-13.25-30.62-40.042.219-1.259.478-2.486.768-3.68h-7.49c-10.157 0-12.805 1.911-14.284 10.306l-5.45 31.208h-25.028l4.765-27.102c-7.167 17.59-21.108 29.31-42.798 29.31-30.472 0-45.492-21.051-40.488-49.611 4.566-26.204 22.82-43.135 48.436-43.135M69.3 167.986c10.008 0 14.87-6.625 19.436-19.43l24.17 4.889 2.615-14.878-25.61 2.04c.297-11.926-3.68-18.106-15.013-18.106-11.332 0-18.552 9.131-20.463 19.876-2.796 15.898 1.911 25.616 14.871 25.616m384.848-19.43h21.638c1.176-7.801-1.911-11.191-8.833-11.191-6.922 0-10.455 2.945-12.805 11.191zm-270.896 0h21.638c1.175-7.801-1.911-11.191-8.833-11.191-6.923 0-10.455 2.945-12.805 11.191zM76.518 96.349c-13.095 0-24.77 4.275-33.751 12.372-8.834 7.956-14.749 19.301-17.1 32.797-2.679 15.284.22 28.909 8.163 38.363 7.761 9.24 19.772 14.122 34.74 14.122 10.945 0 20.457-2.867 28.283-8.524 3.603-2.609 6.812-5.773 9.608-9.479l-2.273 12.914-.503 2.88h30.013l.355-2.034 5.45-31.208c1.175-6.702 2.409-8.272 11.862-8.272h4.456c-.052.272-.097.536-.149.808-2.428 13.392-.374 24.473 5.941 32.041 5.941 7.116 15.31 10.88 27.095 10.88 18.984 0 29.271-8.672 34.824-17.596 1.091 4.695 2.97 8.55 5.605 11.429 3.732 4.088 8.782 6.167 15.007 6.167 7.942 0 14.167-2.996 19.249-9.466l-.762 4.384-.497 2.874h30l.355-2.028 8.388-47.732h2.247l-8.362 46.873-.516 2.887h30.026l.362-2.021 8.504-47.739h2.163l-8.239 46.88-.504 2.88h30.013l.356-2.028 9.627-54.777 9.512 54.777.355 2.034h32.99l.691-1.311 15.478-29.471c-.09 8.976 2.254 16.512 6.936 22.117 5.94 7.115 15.31 10.88 27.094 10.88 22.704 0 32.965-12.404 37.575-22.807l1.085-2.441-2.525-.872-17.738-6.121h20.425l.497-1.795c.62-2.228.846-3.494 1.136-5.102.071-.393.149-.813.233-1.285 2.176-12.352.277-22.497-5.489-29.367-5.515-6.574-14.187-9.906-25.778-9.906-8.097 0-15.4 1.731-21.586 5.069l1.504-2.86H337.561l1.763-9.886.517-2.887h-30.014l-.362 2.021-1.917 10.745h-32.19l-.355 2.034-1.175 6.761c-3.255-7.458-9.544-11.003-19.23-11.003-8.24 0-18.778 3.622-25.719 19.333-1.266-4.301-3.391-7.962-6.361-10.939-5.553-5.572-13.76-8.394-24.389-8.394-13.489 0-24.538 4.727-32.125 13.534l1.466-8.452.497-2.874h-5.715c-7.064 0-12.126 1.866-17.157 10.5l1.318-7.626.497-2.874h-30.001l-.355 2.028-.529 3.028c-1.75-5.805-4.527-10.648-8.298-14.477-7.026-7.129-17.525-10.745-31.202-10.745l-.006-.013zm-7.212 69.196c-4.494 0-7.871-1.304-10.028-3.874-3.106-3.7-3.939-10.222-2.422-18.862 2.344-13.153 10.862-17.848 18.049-17.848 4.345 0 7.4.975 9.356 2.971 2.312 2.37 3.358 6.496 3.21 12.624l-.065 2.725 2.712-.213 22.452-1.789-1.627 9.273-21.703-4.391-2.086-.42-.717 2.002c-4.681 13.147-9.163 17.802-17.124 17.802h-.007zm388.29-19.43c2.189-5.165 5.185-6.282 9.363-6.282 2.673 0 4.526.574 5.495 1.704.826.962 1.201 2.493 1.117 4.578h-15.982.007zm-270.896 0c2.189-5.165 5.185-6.282 9.363-6.282 2.673 0 4.526.574 5.495 1.704.826.962 1.201 2.493 1.117 4.578h-15.982.007zm268.184 15.653h17.021l-.032.065c-1.879 3.486-3.532 5.779-9.176 5.779-3.113 0-5.179-.575-6.315-1.757-.833-.865-1.331-2.214-1.492-4.081l-.006-.006zm-247.786 0h15.407a63.86 63.86 0 0 0-.09 5.282l-15.317-5.282zm-23.11 0h17.021l-.032.065c-1.879 3.486-3.533 5.779-9.176 5.779-3.113 0-5.179-.575-6.315-1.757-.833-.865-1.331-2.214-1.492-4.081l-.006-.006z"/><path fill="#fff" d="m381.626 44.458-2.842 15.95-32.648 23.93h28.38l-4.113 23.066h-91.881l1.995-11.5c-5.404 9.531-12.081 13.708-21.444 13.708-6.16 0-11.081-2.13-14.607-6.341-5.805-6.915-7.38-19.016-4.558-34.998.142-.794.297-1.589.458-2.39h-6.638c-9.621 0-11.701 1.48-13.07 9.293l-5.624 32.228h-27.521l3.526-20.07c-8.601 14.614-22.31 22.278-40.1 22.278-14.587 0-26.275-4.733-33.797-13.689-7.704-9.176-10.513-22.445-7.898-37.362 4.746-27.23 23.77-44.148 49.644-44.148 13.341 0 23.543 3.493 30.33 10.383 4.811 4.882 7.936 11.5 9.344 19.746l1.749-9.963h27.515l-3.035 17.544c6.141-14.839 11.391-17.544 19.83-17.544h4.54l-2.286 12.514c5.398-9.673 13.102-14.723 22.652-14.723 11.029 0 17.254 4.63 19.598 14.833l2.189-12.624h119.169l3.048 36.29 15.653-36.29h32.932l-62.752 120.828-17.738-110.949zm-224.359-3.893c-11.72 0-17.635 9.744-19.255 18.861-1.582 9.008-.653 15.872 2.692 19.857 2.402 2.86 6.096 4.313 10.971 4.313 8.595 0 13.38-4.869 18.281-18.616l.355-1.001 23.982 4.85 2.125-12.076-25.384 2.021.032-1.362c.162-6.47-1-10.894-3.558-13.509-2.195-2.247-5.54-3.345-10.234-3.345l-.007.007zM310.57 81.607l34.675-24.111h-30.439l-4.236 24.111z"/><path fill="#000" d="M158.888 15.64c26.668 0 38.789 13.98 39.286 38.194l3.171-18.022h25.028l-4.714 27.237h.439c8.246-24.88 13.838-27.237 22.523-27.237h3.074l-4.055 22.18c4.869-15.664 13.554-24.388 25.893-24.388 10.603 0 18.107 4.268 19.288 20.024h.44l3.093-17.816h117.012l3.358 40.042 17.273-40.042h30.104L399.99 151.553l-18.3-114.45-4.029 22.608-35.27 25.861h30.659l-3.674 20.612h-89.395l3.093-17.816h-.297c-6.476 15.756-14.283 20.024-23.704 20.024-15.75 0-22.375-14.871-17.958-39.9a99.9 99.9 0 0 1 .762-3.829h-8.149c-10.157 0-12.805 1.912-14.284 10.306l-5.45 31.208h-25.028l4.765-27.101c-7.167 17.59-21.108 29.31-42.798 29.31-30.472 0-45.492-21.051-40.488-49.612 4.566-26.203 22.82-43.135 48.436-43.135m-7.212 69.197c10.008 0 14.871-6.625 19.436-19.43l24.17 4.888 2.615-14.878-25.61 2.04c.297-11.926-3.68-18.105-15.013-18.105-11.332 0-18.552 9.124-20.463 19.875-2.796 15.898 1.911 25.616 14.871 25.616m157.177-.536 40.306-28.024h-35.379l-4.927 28.024zM158.888 13.192c-13.095 0-24.77 4.275-33.752 12.372-8.834 7.956-14.749 19.301-17.099 32.797-2.68 15.284.219 28.91 8.162 38.363 7.761 9.24 19.772 14.122 34.74 14.122 10.945 0 20.457-2.867 28.283-8.524 3.603-2.609 6.812-5.773 9.608-9.48l-2.273 12.915-.503 2.88h30.013l.355-2.034 5.45-31.208c.659-3.77 1.505-5.72 2.9-6.735 1.498-1.078 4.177-1.543 8.962-1.543h5.147l-.175.943c-2.886 16.35-1.214 28.8 4.83 36.006 3.72 4.436 9.099 6.78 15.55 6.78 7.942 0 14.167-2.996 19.249-9.467l-.762 4.385-.497 2.873h94.366l.362-2.021 3.674-20.611.517-2.887h-26.094l29.226-21.425.794-.581.174-.969 1.485-8.323 16.008 100.113 1.175 7.342 3.429-6.599 60.111-115.74 1.86-3.584h-35.761l-.639 1.479-13.393 31.053-2.544-30.285-.187-2.247H290.307l-.356 2.034-1.175 6.76c-3.254-7.458-9.544-11.003-19.23-11.003-6.244 0-13.954 2.1-20.359 10.235l.936-5.133.529-2.893h-6.011c-7.065 0-12.127 1.866-17.157 10.5l1.317-7.627.497-2.873h-30l-.356 2.028-.529 3.028c-1.75-5.805-4.527-10.648-8.298-14.484-7.025-7.129-17.525-10.745-31.201-10.745l-.026.013zm-7.213 69.196c-4.494 0-7.871-1.304-10.028-3.874-3.106-3.7-3.939-10.222-2.422-18.862 2.344-13.153 10.862-17.848 18.049-17.848 4.345 0 7.4.975 9.356 2.97 2.312 2.37 3.358 6.497 3.209 12.625l-.064 2.725 2.712-.213 22.452-1.789-1.627 9.273-21.703-4.391-2.086-.42-.717 2.002c-4.681 13.147-9.163 17.802-17.124 17.802h-.007zm164.164-23.653h25.493l-29.045 20.192 3.552-20.192z"/><path fill="#000" d="m275.416 49.45-.316 8.42c-.071 1.937.413 3.616 1.369 4.92.962 1.299 2.395 2.228 4.216 2.667l7.923 1.905c.762.181 1.059.988.665 1.796-.284.58-.852 1.013-1.433 1.136l-8.924 1.905a13.767 13.767 0 0 0-5.624 2.667 14.409 14.409 0 0 0-3.965 4.92l-4.126 8.427c-.394.807-1.331 1.317-2.092 1.137-.549-.13-.859-.588-.833-1.137l.316-8.427c.071-1.93-.413-3.616-1.375-4.914-.956-1.304-2.39-2.234-4.211-2.667l-7.923-1.904c-.762-.181-1.059-.989-.665-1.796.284-.58.853-1.013 1.434-1.136l8.924-1.905a13.773 13.773 0 0 0 5.624-2.667 14.349 14.349 0 0 0 3.965-4.92l4.132-8.427c.394-.807 1.331-1.317 2.093-1.137.548.13.858.588.833 1.137h-.007zm-15.743 85.172-.316 8.42c-.071 1.937.413 3.616 1.369 4.92.962 1.298 2.396 2.228 4.216 2.667l7.924 1.905c.762.181 1.059.988.665 1.795-.284.581-.853 1.014-1.434 1.137l-8.924 1.905a13.762 13.762 0 0 0-5.624 2.666 14.419 14.419 0 0 0-3.965 4.921l-4.126 8.427c-.394.807-1.33 1.317-2.092 1.136-.549-.129-.859-.588-.833-1.136l.316-8.427c.071-1.931-.413-3.616-1.375-4.914-.956-1.305-2.389-2.234-4.21-2.667l-7.924-1.905c-.761-.181-1.058-.988-.665-1.795.285-.581.853-1.014 1.434-1.137l8.924-1.904a13.764 13.764 0 0 0 5.624-2.667 14.353 14.353 0 0 0 3.965-4.921l4.133-8.426c.394-.808 1.33-1.318 2.092-1.137.549.129.859.588.833 1.137h-.007z"/></g><defs><linearGradient id="b" x1=".155" x2="513.535" y1="103.446" y2="103.446" gradientUnits="userSpaceOnUse"><stop stop-color="#80E7FF"/><stop offset=".24" stop-color="#726FF7"/><stop offset=".5" stop-color="#F482AE"/><stop offset=".75" stop-color="#DCF980"/><stop offset="1" stop-color="#7BFCE9"/></linearGradient><clipPath id="a"><path fill="#fff" d="M0 0h514v206.633H0z"/></clipPath></defs></svg>